<svg version="1.1" viewBox="0.0 0.0 348.0 112.0" fill="none" stroke="none" stroke-linecap="square" stroke-miterlimit="10" xmlns:xlink="http://www.w3.org/1999/xlink" xmlns="http://www.w3.org/2000/svg"><clipPath id="p.0"><path d="m0 0l348.0 0l0 112.0l-348.0 0l0 -112.0z" clip-rule="nonzero"/></clipPath><g clip-path="url(#p.0)"><path fill="#000000" fill-opacity="0.0" d="m0 0l348.0 0l0 112.0l-348.0 0z" fill-rule="evenodd"/><path fill="#000000" fill-opacity="0.0" d="m0.0131233595 0.007874016l348.0 0l0 112.0l-348.0 0z" fill-rule="evenodd"/><path fill="#ffffff" d="m80.739685 17.985996q1.359375 0 2.234375 0.765625q0.890625 0.765625 0.765625 2.75q-0.03125 0.671875 -0.3125 2.484375q-0.265625 1.8125 -0.65625 4.28125q-0.390625 2.453125 -0.890625 5.296875q-0.484375 2.828125 -0.90625 5.515625l0.8125 0q0.390625 0 0.859375 -0.03125q0.46875 -0.046875 0.984375 -0.125q-0.203125 0.46875 -0.4375 0.890625q-0.234375 0.40625 -0.46875 0.71875q-0.265625 0.34375 -0.546875 0.625q-0.34375 0.421875 -0.8125 0.765625q-0.46875 0.328125 -0.90625 0.515625q-0.265625 1.921875 -0.453125 3.421875q-0.171875 1.5 -0.203125 2.484375q-0.078125 1.484375 0.078125 2.78125q0.109375 1.125 0.453125 2.296875q0.359375 1.171875 1.140625 1.875l-4.53125 1.484375q-0.46875 -0.65625 -0.6875 -1.78125q-0.203125 -1.109375 -0.28125 -2.203125q-0.125 -1.28125 -0.046875 -2.65625q0.078125 -1.359375 0.421875 -3.5625q0.359375 -2.21875 0.796875 -4.84375q-0.78125 -0.234375 -1.703125 -0.390625q-0.921875 -0.15625 -2.046875 -0.15625q-1.015625 0 -2.140625 0.078125q-1.109375 0.078125 -2.203125 0.203125q-0.46875 1.71875 -0.9375 3.625q-0.5 2.078125 -0.921875 3.546875q-0.40625 1.46875 -0.78125 2.4375q-0.359375 0.984375 -0.734375 1.5625q-0.375 0.59375 -0.796875 0.859375q-0.46875 0.234375 -1.1875 0.4375q-0.65625 0.1875 -1.671875 0.375q-1.015625 0.203125 -2.625 0.328125q0.59375 -0.703125 1.03125 -1.296875q0.421875 -0.578125 0.859375 -1.4375q0.421875 -0.859375 0.953125 -2.21875q0.515625 -1.34375 1.34375 -3.53125q0.359375 -0.90625 0.71875 -1.96875q0.375 -1.078125 0.8125 -2.21875q-1.421875 0.203125 -2.390625 0.359375q-0.984375 0.15625 -1.171875 0.234375q-0.3125 0.03125 -0.515625 0q-0.5 -0.078125 -0.546875 -0.515625q0.046875 -0.546875 0.375 -0.734375q0.328125 -0.203125 1.0 -0.46875q0.3125 -0.15625 1.4375 -0.5625q1.109375 -0.421875 2.703125 -0.890625q0.59375 -1.640625 1.15625 -3.25q0.5625 -1.625 1.109375 -3.109375q0.546875 -1.484375 1.046875 -2.796875q0.515625 -1.3125 0.953125 -2.25q0.65625 -1.4375 1.6875 -3.171875q1.046875 -1.75 2.390625 -3.265625q1.34375 -1.53125 2.96875 -2.546875q1.625 -1.015625 3.421875 -1.015625zm-0.4375 8.125q0.4375 -1.75 0.59375 -2.875q0.15625 -1.140625 0.109375 -1.78125q-0.03125 -0.65625 -0.25 -0.90625q-0.21875 -0.25 -0.53125 -0.25q-0.5 0 -1.25 0.390625q-0.734375 0.390625 -1.5625 1.109375q-0.8125 0.71875 -1.625 1.796875q-0.796875 1.078125 -1.421875 2.4375q-0.890625 2.03125 -2.03125 4.984375q-1.125 2.953125 -2.453125 7.515625q0.78125 -0.109375 1.53125 -0.1875q0.765625 -0.078125 1.515625 -0.078125q1.328125 0 2.53125 0.09375q1.21875 0.09375 2.234375 0.21875q0.34375 -1.875 0.71875 -3.6875q0.375 -1.828125 0.71875 -3.46875q0.359375 -1.640625 0.640625 -3.0q0.296875 -1.375 0.53125 -2.3125zm22.546875 -8.125q1.359375 0 2.234375 0.765625q0.890625 0.765625 0.765625 2.75q-0.03125 0.671875 -0.3125 2.484375q-0.265625 1.8125 -0.65625 4.28125q-0.390625 2.453125 -0.890625 5.296875q-0.484375 2.828125 -0.90625 5.515625l0.8125 0q0.390625 0 0.859375 -0.03125q0.46875 -0.046875 0.984375 -0.125q-0.203125 0.46875 -0.4375 0.890625q-0.234375 0.40625 -0.46875 0.71875q-0.265625 0.34375 -0.546875 0.625q-0.34375 0.421875 -0.8125 0.765625q-0.46875 0.328125 -0.90625 0.515625q-0.265625 1.921875 -0.453125 3.421875q-0.171875 1.5 -0.203125 2.484375q-0.078125 1.484375 0.078125 2.78125q0.109375 1.125 0.453125 2.296875q0.359375 1.171875 1.140625 1.875l-4.53125 1.484375q-0.46875 -0.65625 -0.6875 -1.78125q-0.203125 -1.109375 -0.28125 -2.203125q-0.125 -1.28125 -0.046875 -2.65625q0.078125 -1.359375 0.421875 -3.5625q0.359375 -2.21875 0.796875 -4.84375q-0.78125 -0.234375 -1.703125 -0.390625q-0.921875 -0.15625 -2.046875 -0.15625q-1.015625 0 -2.140625 0.078125q-1.109375 0.078125 -2.203125 0.203125q-0.46875 1.71875 -0.9375 3.625q-0.5 2.078125 -0.921875 3.546875q-0.40625 1.46875 -0.78125 2.4375q-0.359375 0.984375 -0.734375 1.5625q-0.375 0.59375 -0.796875 0.859375q-0.46875 0.234375 -1.1875 0.4375q-0.65625 0.1875 -1.671875 0.375q-1.015625 0.203125 -2.625 0.328125q0.59375 -0.703125 1.03125 -1.296875q0.421875 -0.578125 0.859375 -1.4375q0.421875 -0.859375 0.953125 -2.21875q0.515625 -1.34375 1.34375 -3.53125q0.359375 -0.90625 0.71875 -1.96875q0.375 -1.078125 0.8125 -2.21875q-1.421875 0.203125 -2.390625 0.359375q-0.984375 0.15625 -1.171875 0.234375q-0.3125 0.03125 -0.515625 0q-0.5 -0.078125 -0.546875 -0.515625q0.046875 -0.546875 0.375 -0.734375q0.328125 -0.203125 1.0 -0.46875q0.3125 -0.15625 1.4375 -0.5625q1.109375 -0.421875 2.703125 -0.890625q0.59375 -1.640625 1.15625 -3.25q0.5625 -1.625 1.109375 -3.109375q0.546875 -1.484375 1.046875 -2.796875q0.515625 -1.3125 0.953125 -2.25q0.65625 -1.4375 1.6875 -3.171875q1.046875 -1.75 2.390625 -3.265625q1.34375 -1.53125 2.96875 -2.546875q1.625 -1.015625 3.421875 -1.015625zm-0.4375 8.125q0.4375 -1.75 0.59375 -2.875q0.15625 -1.140625 0.109375 -1.78125q-0.03125 -0.65625 -0.25 -0.90625q-0.21875 -0.25 -0.53125 -0.25q-0.5 0 -1.25 0.390625q-0.734375 0.390625 -1.5625 1.109375q-0.8125 0.71875 -1.625 1.796875q-0.796875 1.078125 -1.421875 2.4375q-0.890625 2.03125 -2.03125 4.984375q-1.125 2.953125 -2.453125 7.515625q0.78125 -0.109375 1.53125 -0.1875q0.765625 -0.078125 1.515625 -0.078125q1.328125 0 2.53125 0.09375q1.21875 0.09375 2.234375 0.21875q0.34375 -1.875 0.71875 -3.6875q0.375 -1.828125 0.71875 -3.46875q0.359375 -1.640625 0.640625 -3.0q0.296875 -1.375 0.53125 -2.3125zm31.882812 -8.203125q1.515625 0 2.640625 0.671875q1.140625 0.65625 1.921875 1.734375q0.78125 1.078125 1.25 2.40625q0.46875 1.328125 0.703125 2.671875q0.234375 1.34375 0.296875 2.5625q0.0625 1.203125 0.015625 1.984375q-0.1875 3.046875 -0.875 5.859375q-0.6875 2.8125 -1.703125 5.296875q-1.015625 2.484375 -2.3125 4.578125q-1.28125 2.09375 -2.6875 3.734375q0.203125 0.1875 0.40625 0.421875q0.21875 0.234375 0.421875 0.4375q1.09375 1.09375 2.21875 1.828125q0.984375 0.671875 2.15625 1.109375q1.171875 0.453125 2.21875 0.140625q0.046875 0.546875 -0.328125 0.84375q-0.375 0.296875 -0.796875 0.453125q-0.515625 0.15625 -1.21875 0.1875q-0.890625 0 -1.890625 -0.375q-1.0 -0.359375 -1.921875 -0.890625q-0.90625 -0.53125 -1.734375 -1.15625q-0.8125 -0.625 -1.359375 -1.09375q-1.765625 1.71875 -3.46875 2.578125q-1.6875 0.859375 -3.140625 0.859375q-2.375 0 -3.390625 -1.03125q-1.015625 -1.03125 -0.90625 -2.5625q0.046875 -0.734375 0.46875 -1.5625q0.4375 -0.8125 1.1875 -1.5q0.765625 -0.6875 1.8125 -1.109375q1.0625 -0.4375 2.4375 -0.4375q1.328125 0 2.359375 0.234375q1.03125 0.234375 2.046875 0.78125q1.25 -1.765625 2.375 -3.96875q1.140625 -2.203125 2.015625 -4.578125q0.890625 -2.390625 1.46875 -4.8125q0.59375 -2.421875 0.75 -4.609375q0.15625 -2.8125 -0.15625 -4.625q-0.3125 -1.828125 -0.90625 -2.890625q-0.578125 -1.078125 -1.28125 -1.5q-0.703125 -0.4375 -1.296875 -0.4375q-1.328125 0 -2.953125 1.3125q-1.609375 1.296875 -3.09375 3.640625q-1.484375 2.34375 -2.578125 5.546875q-1.09375 3.203125 -1.375 7.0q-0.03125 1.640625 0.3125 2.921875q0.15625 0.546875 0.40625 1.078125q0.265625 0.53125 0.65625 0.9375q0.390625 0.40625 0.9375 0.640625q0.546875 0.234375 1.28125 0.203125q-0.078125 0.65625 -0.515625 1.015625q-0.421875 0.34375 -0.890625 0.5q-0.546875 0.203125 -1.25 0.203125q-0.578125 0 -1.4375 -0.484375q-0.859375 -0.5 -1.671875 -1.546875q-0.796875 -1.0625 -1.3125 -2.71875q-0.5 -1.65625 -0.296875 -4.0q0.109375 -1.5625 0.5625 -3.53125q0.453125 -1.984375 1.265625 -4.03125q0.828125 -2.046875 1.96875 -4.0q1.15625 -1.953125 2.671875 -3.5q1.53125 -1.546875 3.40625 -2.484375q1.875 -0.9375 4.109375 -0.9375zm-9.109375 34.15625q1.015625 0 2.125 -0.6875q1.125 -0.6875 2.21875 -1.859375q-0.9375 -0.625 -2.0 -0.625q-0.734375 0 -1.34375 0.21875q-0.609375 0.21875 -1.046875 0.5625q-0.421875 0.359375 -0.671875 0.765625q-0.25 0.40625 -0.25 0.796875q-0.046875 0.359375 0.1875 0.59375q0.234375 0.234375 0.78125 0.234375zm22.226562 -4.03125q-1.484375 0 -2.421875 -0.46875q-0.9375 -0.46875 -1.46875 -1.15625q-0.515625 -0.6875 -0.734375 -1.484375q-0.21875 -0.796875 -0.21875 -1.46875q0 -1.171875 0.1875 -2.46875q0.203125 -1.3125 0.46875 -2.421875q0.28125 -1.125 0.5 -1.90625q0.21875 -0.78125 0.296875 -0.96875q0.34375 -1.140625 0.90625 -1.96875q0.578125 -0.84375 1.59375 -1.15625q0.390625 -0.078125 0.8125 -0.15625q0.359375 -0.046875 0.71875 -0.046875q0.375 0 0.6875 0.125q-1.046875 2.6875 -1.65625 4.484375q-0.609375 1.796875 -0.921875 2.9375q-0.34375 1.28125 -0.421875 2.0625q-0.203125 1.765625 0.296875 2.671875q0.515625 0.890625 2.078125 0.890625q1.015625 0 1.953125 -0.765625q0.9375 -0.765625 1.71875 -1.96875q-0.109375 -0.625 -0.109375 -1.296875q0 -1.25 0.203125 -2.4375q0.21875 -1.1875 0.515625 -2.21875q0.296875 -1.046875 0.625 -1.859375q0.328125 -0.828125 0.5625 -1.296875q0.4375 -0.9375 0.78125 -1.140625q0.359375 -0.21875 1.140625 -0.265625q0.3125 -0.03125 0.515625 -0.015625q0.21875 0.015625 0.375 0.0625q0.46875 0.109375 0.46875 0.46875q0 0.625 -0.078125 1.875q-0.078125 1.25 -0.46875 2.578125q-0.265625 1.09375 -0.53125 1.859375q-0.25 0.75 -0.484375 1.28125q-0.234375 0.53125 -0.46875 0.859375q-0.234375 0.328125 -0.421875 0.609375q0.078125 1.171875 0.1875 1.875q0.125 0.703125 0.296875 1.078125q0.171875 0.359375 0.421875 0.5q0.265625 0.140625 0.578125 0.140625q0.546875 0 1.28125 -0.53125q0.75 -0.53125 1.546875 -1.328125q0.796875 -0.796875 1.59375 -1.75q0.8125 -0.96875 1.46875 -1.828125q0.671875 -0.859375 1.140625 -1.5q0.46875 -0.640625 0.578125 -0.796875q0.28125 -0.359375 0.53125 -0.4375q0.25 -0.078125 0.40625 0.0625q0.15625 0.140625 0.171875 0.4375q0.03125 0.28125 -0.171875 0.640625q-0.78125 1.484375 -1.9375 3.140625q-1.140625 1.65625 -2.453125 3.0625q-1.3125 1.40625 -2.640625 2.359375q-1.328125 0.9375 -2.5 0.9375q-1.046875 0 -1.65625 -0.71875q-0.609375 -0.734375 -1.03125 -2.109375q-0.90625 1.40625 -2.125 2.171875q-1.203125 0.765625 -2.6875 0.765625zm22.5 -23.640625q-0.109375 0.4375 -0.453125 0.84375q-0.328125 0.40625 -0.734375 0.671875q-0.40625 0.25 -0.84375 0.328125q-0.421875 0.078125 -0.703125 -0.15625q-0.8125 -0.625 -0.859375 -1.34375q-0.03125 -0.734375 0.359375 -1.375q0.390625 -0.640625 0.96875 -1.09375q0.59375 -0.453125 1.015625 -0.53125q0.4375 -0.078125 0.71875 0.1875q0.296875 0.25 0.453125 0.65625q0.15625 0.40625 0.171875 0.921875q0.03125 0.5 -0.09375 0.890625zm-5.390625 8.328125q0.203125 -0.234375 0.75 -0.390625q0.546875 -0.15625 1.125 -0.25q0.59375 -0.109375 1.078125 -0.125q0.484375 -0.015625 0.5625 0.015625q0.046875 0.046875 -0.1875 0.828125q-0.234375 0.78125 -0.59375 1.84375q-0.34375 1.046875 -0.734375 2.15625q-0.390625 1.109375 -0.59375 1.8125q-0.1875 0.703125 -0.46875 1.59375q-0.265625 0.875 -0.484375 1.71875q-0.21875 0.828125 -0.296875 1.578125q-0.078125 0.734375 0.125 1.125q0.1875 0.46875 0.421875 0.65625q0.234375 0.171875 0.515625 0.171875q0.78125 0 1.96875 -0.859375q1.1875 -0.859375 2.421875 -2.046875q1.234375 -1.203125 2.28125 -2.421875q1.0625 -1.234375 1.5625 -1.984375q0.3125 -0.390625 0.640625 -0.5q0.34375 -0.125 0.546875 0.03125q0.21875 0.15625 0.234375 0.515625q0.03125 0.34375 -0.25 0.8125q-0.625 1.09375 -1.84375 2.609375q-1.203125 1.5 -2.578125 2.890625q-1.359375 1.375 -2.671875 2.359375q-1.296875 0.984375 -2.125 1.015625q-0.65625 0.046875 -1.3125 -0.21875q-0.640625 -0.25 -1.171875 -0.703125q-0.515625 -0.453125 -0.875 -1.046875q-0.34375 -0.609375 -0.390625 -1.28125q-0.109375 -0.96875 0 -2.671875q0.125 -1.703125 0.4375 -3.46875q0.3125 -1.78125 0.796875 -3.375q0.484375 -1.609375 1.109375 -2.390625zm14.4140625 13.359375q1.21875 0 2.671875 -0.953125q1.46875 -0.96875 2.859375 -2.25q1.390625 -1.296875 2.53125 -2.640625q1.15625 -1.34375 1.75 -2.171875q0.34375 -0.5 0.65625 -0.59375q0.3125 -0.109375 0.46875 0.09375q0.15625 0.1875 0.109375 0.609375q-0.03125 0.40625 -0.34375 0.90625q-0.265625 0.46875 -0.921875 1.359375q-0.640625 0.875 -1.515625 1.90625q-0.875 1.03125 -2.0 2.109375q-1.109375 1.078125 -2.328125 1.953125q-1.203125 0.875 -2.5 1.4375q-1.28125 0.578125 -2.53125 0.578125q-1.71875 0 -2.875 -0.65625q-1.140625 -0.640625 -1.828125 -1.65625q-0.6875 -1.015625 -0.953125 -2.234375q-0.28125 -1.234375 -0.28125 -2.453125q0 -1.203125 0.546875 -3.0q0.546875 -1.796875 1.625 -3.453125q1.078125 -1.671875 2.71875 -2.859375q1.640625 -1.1875 3.859375 -1.1875q1.25 0 2.125 0.859375q0.890625 0.859375 0.84375 2.34375q0 0.703125 -0.234375 1.390625q-0.234375 0.671875 -0.625 1.203125q-0.390625 0.53125 -0.921875 0.84375q-0.515625 0.3125 -1.140625 0.3125q-0.515625 0 -0.765625 -0.375q-0.25 -0.375 -0.3125 -0.859375q-0.0625 -0.484375 0 -0.953125q0.0625 -0.46875 0.140625 -0.625q0.1875 -0.28125 0.421875 -0.390625q0.234375 -0.125 0.546875 -0.28125q0.234375 -0.109375 0.375 -0.34375q0.140625 -0.234375 0.140625 -0.5q0 -0.28125 -0.15625 -0.46875q-0.15625 -0.203125 -0.515625 -0.203125q-0.34375 0 -1.265625 0.5625q-0.921875 0.5625 -1.875 1.6875q-0.953125 1.109375 -1.703125 2.796875q-0.734375 1.671875 -0.78125 3.890625q-0.03125 1.296875 0.359375 2.125q0.390625 0.8125 0.96875 1.28125q0.59375 0.46875 1.296875 0.671875q0.703125 0.1875 1.359375 0.1875zm27.9375 -6.453125q-0.90625 1.484375 -2.0625 3.078125q-1.140625 1.578125 -2.4375 2.890625q-1.28125 1.296875 -2.65625 2.15625q-1.359375 0.875 -2.734375 0.875q-1.359375 0 -1.96875 -0.921875q-0.609375 -0.921875 -0.5625 -2.0625q0 -0.5 0.09375 -0.890625q0.09375 -0.390625 0.203125 -0.703125q0.125 -0.3125 0.265625 -0.640625q0.140625 -0.34375 0.25 -0.765625q0.15625 -0.515625 0.015625 -0.921875q-0.125 -0.40625 -0.328125 -0.71875q-0.34375 0.390625 -0.796875 0.6875q-0.453125 0.28125 -1.109375 0.28125q-0.46875 0 -0.859375 -0.4375q-0.390625 -0.453125 -0.390625 -1.125q0 -0.546875 0.25 -0.890625q0.25 -0.359375 0.578125 -0.546875q0.34375 -0.203125 0.6875 -0.28125q0.359375 -0.078125 0.59375 -0.078125q0.109375 0 0.484375 0.046875q0.375 0.03125 0.796875 0.109375q1.40625 -1.125 2.015625 -2.046875q0.609375 -0.921875 0.09375 -1.65625q-0.3125 -0.515625 -0.78125 -0.53125q-0.46875 -0.015625 -0.984375 0.234375q-0.5 0.25 -0.984375 0.640625q-0.484375 0.390625 -0.875 0.75q-0.78125 0.78125 -1.75 1.859375q-0.953125 1.0625 -1.578125 1.765625q-0.265625 1.171875 -0.546875 2.46875q-0.234375 1.125 -0.53125 2.5625q-0.28125 1.421875 -0.59375 2.953125q-0.234375 0.109375 -0.5 0.171875q-0.25 0.0625 -0.4375 0.09375q-0.234375 0.046875 -0.46875 0.046875q-0.3125 0 -0.59375 -0.03125q-0.28125 -0.015625 -0.453125 -0.1875q-0.171875 -0.171875 -0.1875 -0.5625q-0.03125 -0.40625 0.203125 -1.109375q0.3125 -1.015625 0.78125 -2.703125q0.484375 -1.703125 0.984375 -3.734375q0.515625 -2.03125 1.03125 -4.234375q0.53125 -2.21875 1.0 -4.21875q0.46875 -2.015625 0.796875 -3.640625q0.34375 -1.625 0.5 -2.5625q0.109375 -1.015625 0.234375 -1.953125q0.078125 -0.78125 0.09375 -1.53125q0.015625 -0.765625 -0.09375 -1.15625q0.1875 -0.203125 0.53125 -0.359375q0.359375 -0.15625 0.796875 -0.234375q0.421875 -0.109375 1.015625 -0.1875q0.65625 -0.078125 1.109375 -0.03125q0.453125 0.03125 0.640625 0.375q0.234375 0.390625 0.09375 1.3125q-0.125 0.921875 -0.5625 2.5625q-0.546875 2.109375 -1.109375 3.84375q-0.5625 1.734375 -1.09375 3.265625q-0.53125 1.515625 -1.015625 2.953125q-0.484375 1.421875 -0.875 2.90625q0.78125 -1.140625 1.953125 -2.40625q1.171875 -1.265625 2.65625 -2.09375q1.5625 -0.8125 2.578125 -0.8125q1.25 0 1.796875 0.84375q0.546875 0.828125 0.5 1.96875q-0.03125 0.890625 -0.453125 1.65625q-0.40625 0.765625 -1.0 1.40625q-0.578125 0.640625 -1.25 1.109375q-0.65625 0.46875 -1.125 0.78125q0.546875 0.3125 0.953125 0.84375q0.421875 0.53125 0.375 1.3125q-0.03125 1.046875 -0.40625 1.859375q-0.375 0.796875 -0.375 1.453125q0.046875 0.515625 0.21875 0.75q0.171875 0.234375 0.765625 0.234375q1.046875 0 2.203125 -0.890625q1.15625 -0.90625 2.171875 -2.078125q1.015625 -1.171875 1.875 -2.328125q0.859375 -1.15625 1.328125 -1.703125q0.65625 -0.703125 1.109375 -0.359375q0.453125 0.328125 -0.09375 1.21875zm6.5234375 -14.609375q-0.59375 2.34375 -1.3125 4.484375q-0.71875 2.125 -1.484375 3.984375q-0.765625 1.84375 -1.53125 3.375q-0.75 1.515625 -1.34375 2.65625q-0.390625 2.8125 0 4.53125q0.390625 1.71875 1.53125 1.71875q0.9375 0 1.828125 -0.859375q0.90625 -0.859375 1.609375 -2.109375q0.703125 -1.25 1.1875 -2.671875q0.484375 -1.4375 0.609375 -2.5625q-0.75 -0.203125 -1.265625 -0.6875q-0.5 -0.484375 -0.5 -1.3125q0 -0.546875 0.3125 -1.03125q0.3125 -0.484375 0.734375 -0.828125q0.4375 -0.359375 0.9375 -0.546875q0.515625 -0.203125 0.953125 -0.203125q0.65625 0 1.125 0.84375q0.46875 0.828125 0.625 2.125q1.5625 -0.046875 3.28125 -0.46875q1.71875 -0.4375 3.25 -1.09375q0.421875 -0.203125 0.6875 -0.125q0.28125 0.078125 0.375 0.3125q0.109375 0.234375 -0.015625 0.53125q-0.109375 0.296875 -0.46875 0.453125q-0.890625 0.5 -1.859375 0.921875q-0.953125 0.40625 -1.890625 0.6875q-0.9375 0.265625 -1.796875 0.421875q-0.859375 0.15625 -1.5625 0.15625q-0.15625 1.5625 -0.984375 3.375q-0.8125 1.8125 -1.984375 3.359375q-1.171875 1.546875 -2.59375 2.5625q-1.421875 1.015625 -2.796875 1.015625q-0.421875 0 -1.125 -0.125q-0.703125 -0.109375 -1.375 -0.8125q-0.65625 -0.703125 -1.125 -2.25q-0.46875 -1.546875 -0.390625 -4.390625q0.03125 -1.921875 0.421875 -4.0625q0.390625 -2.15625 0.9375 -4.296875q0.546875 -2.15625 1.234375 -4.15625q0.6875 -2.015625 1.3125 -3.640625q0.625 -1.625 1.140625 -2.71875q0.53125 -1.09375 0.8125 -1.40625q0.34375 -0.421875 0.8125 -0.640625q0.46875 -0.21875 0.921875 -0.3125q0.453125 -0.09375 0.84375 -0.046875q0.390625 0.03125 0.546875 0.109375q0.234375 0.15625 0.125 1.71875q-0.09375 1.5625 -0.75 4.015625zm19.210938 16.171875q-0.390625 1.484375 -1.0625 2.78125q-0.65625 1.28125 -1.578125 2.21875q-0.90625 0.9375 -2.0625 1.46875q-1.15625 0.53125 -2.515625 0.53125q-1.609375 0 -2.53125 -0.6875q-0.90625 -0.6875 -1.359375 -1.703125q-0.453125 -1.015625 -0.546875 -2.21875q-0.109375 -1.21875 -0.109375 -2.265625q0 -0.75 0.1875 -1.640625q0.171875 -0.90625 0.484375 -1.84375q0.3125 -0.9375 0.796875 -1.875q0.5 -0.9375 1.15625 -1.71875q0.234375 -0.65625 0.71875 -1.15625q0.5 -0.515625 1.140625 -0.84375q0.640625 -0.34375 1.375 -0.515625q0.75 -0.171875 1.453125 -0.171875q0.125 0 0.21875 0.046875q0.09375 0.03125 0.21875 0.0625q0.5 0.046875 1.265625 0.40625q0.765625 0.34375 1.484375 1.046875q0.71875 0.703125 1.21875 1.78125q0.515625 1.0625 0.515625 2.59375q0 0.3125 -0.046875 0.765625q-0.03125 0.4375 -0.0625 0.75q0.890625 -0.34375 1.859375 -0.84375q0.984375 -0.515625 1.90625 -1.078125q0.921875 -0.578125 1.703125 -1.15625q0.78125 -0.59375 1.25 -1.0625q0.390625 -0.34375 0.65625 -0.375q0.28125 -0.046875 0.390625 0.15625q0.125 0.1875 0.046875 0.546875q-0.078125 0.34375 -0.4375 0.765625q-0.1875 0.234375 -1.0 0.9375q-0.796875 0.703125 -1.890625 1.53125q-1.09375 0.8125 -2.390625 1.59375q-1.28125 0.78125 -2.453125 1.171875zm-6.59375 -5.9375q-0.125 0.359375 -0.125 0.75q0 0.625 0.078125 1.3125q0.078125 0.671875 0.390625 1.21875q0.3125 0.546875 1.0 0.921875q0.6875 0.375 1.890625 0.375q0.203125 0 0.390625 -0.015625q0.203125 -0.03125 0.390625 -0.0625q0.125 -0.515625 0.21875 -0.921875q0.09375 -0.40625 0.09375 -0.71875q0.078125 -0.75 0 -1.53125q-0.078125 -0.78125 -0.296875 -1.421875q-0.203125 -0.640625 -0.546875 -1.046875q-0.328125 -0.421875 -0.796875 -0.421875q-0.734375 0 -1.421875 0.421875q-0.6875 0.40625 -1.265625 1.140625zm-2.5 6.875q0 0.703125 0.078125 1.390625q0.078125 0.6875 0.3125 1.21875q0.234375 0.515625 0.625 0.859375q0.390625 0.328125 1.015625 0.328125q0.703125 0 1.28125 -0.328125q0.59375 -0.34375 1.0625 -0.859375q0.46875 -0.53125 0.828125 -1.21875q0.375 -0.6875 0.65625 -1.421875q-0.28125 0.03125 -0.53125 0.0625q-0.25 0.015625 -0.5625 0.015625q-1.484375 0 -2.5625 -0.875q-1.078125 -0.890625 -1.65625 -2.25q-0.234375 0.8125 -0.390625 1.59375q-0.15625 0.78125 -0.15625 1.484375zm24.835938 -0.9375q-0.390625 1.484375 -1.0625 2.78125q-0.65625 1.28125 -1.578125 2.21875q-0.90625 0.9375 -2.0625 1.46875q-1.15625 0.53125 -2.515625 0.53125q-1.609375 0 -2.53125 -0.6875q-0.90625 -0.6875 -1.359375 -1.703125q-0.453125 -1.015625 -0.546875 -2.21875q-0.109375 -1.21875 -0.109375 -2.265625q0 -0.75 0.1875 -1.640625q0.171875 -0.90625 0.484375 -1.84375q0.3125 -0.9375 0.796875 -1.875q0.5 -0.9375 1.15625 -1.71875q0.234375 -0.65625 0.71875 -1.15625q0.5 -0.515625 1.140625 -0.84375q0.640625 -0.34375 1.375 -0.515625q0.75 -0.171875 1.453125 -0.171875q0.125 0 0.21875 0.046875q0.09375 0.03125 0.21875 0.0625q0.5 0.046875 1.265625 0.40625q0.765625 0.34375 1.484375 1.046875q0.71875 0.703125 1.21875 1.78125q0.515625 1.0625 0.515625 2.59375q0 0.3125 -0.046875 0.765625q-0.03125 0.4375 -0.0625 0.75q0.890625 -0.34375 1.859375 -0.84375q0.984375 -0.515625 1.90625 -1.078125q0.921875 -0.578125 1.703125 -1.15625q0.78125 -0.59375 1.25 -1.0625q0.390625 -0.34375 0.65625 -0.375q0.28125 -0.046875 0.390625 0.15625q0.125 0.1875 0.046875 0.546875q-0.078125 0.34375 -0.4375 0.765625q-0.1875 0.234375 -1.0 0.9375q-0.796875 0.703125 -1.890625 1.53125q-1.09375 0.8125 -2.390625 1.59375q-1.28125 0.78125 -2.453125 1.171875zm-6.59375 -5.9375q-0.125 0.359375 -0.125 0.75q0 0.625 0.078125 1.3125q0.078125 0.671875 0.390625 1.21875q0.3125 0.546875 1.0 0.921875q0.6875 0.375 1.890625 0.375q0.203125 0 0.390625 -0.015625q0.203125 -0.03125 0.390625 -0.0625q0.125 -0.515625 0.21875 -0.921875q0.09375 -0.40625 0.09375 -0.71875q0.078125 -0.75 0 -1.53125q-0.078125 -0.78125 -0.296875 -1.421875q-0.203125 -0.640625 -0.546875 -1.046875q-0.328125 -0.421875 -0.796875 -0.421875q-0.734375 0 -1.421875 0.421875q-0.6875 0.40625 -1.265625 1.140625zm-2.5 6.875q0 0.703125 0.078125 1.390625q0.078125 0.6875 0.3125 1.21875q0.234375 0.515625 0.625 0.859375q0.390625 0.328125 1.015625 0.328125q0.703125 0 1.28125 -0.328125q0.59375 -0.34375 1.0625 -0.859375q0.46875 -0.53125 0.828125 -1.21875q0.375 -0.6875 0.65625 -1.421875q-0.28125 0.03125 -0.53125 0.0625q-0.25 0.015625 -0.5625 0.015625q-1.484375 0 -2.5625 -0.875q-1.078125 -0.890625 -1.65625 -2.25q-0.234375 0.8125 -0.390625 1.59375q-0.15625 0.78125 -0.15625 1.484375zm33.320312 -2.5q-0.90625 1.484375 -2.0625 3.078125q-1.140625 1.578125 -2.4375 2.890625q-1.28125 1.296875 -2.65625 2.15625q-1.359375 0.875 -2.734375 0.875q-1.359375 0 -1.96875 -0.921875q-0.609375 -0.921875 -0.5625 -2.0625q0 -0.5 0.09375 -0.890625q0.09375 -0.390625 0.203125 -0.703125q0.125 -0.3125 0.265625 -0.640625q0.140625 -0.34375 0.25 -0.765625q0.15625 -0.515625 0.015625 -0.921875q-0.125 -0.40625 -0.328125 -0.71875q-0.34375 0.390625 -0.796875 0.6875q-0.453125 0.28125 -1.109375 0.28125q-0.46875 0 -0.859375 -0.4375q-0.390625 -0.453125 -0.390625 -1.125q0 -0.546875 0.25 -0.890625q0.25 -0.359375 0.578125 -0.546875q0.34375 -0.203125 0.6875 -0.28125q0.359375 -0.078125 0.59375 -0.078125q0.109375 0 0.484375 0.046875q0.375 0.03125 0.796875 0.109375q1.40625 -1.125 2.015625 -2.046875q0.609375 -0.921875 0.09375 -1.65625q-0.3125 -0.515625 -0.78125 -0.53125q-0.46875 -0.015625 -0.984375 0.234375q-0.5 0.25 -0.984375 0.640625q-0.484375 0.390625 -0.875 0.75q-0.78125 0.78125 -1.75 1.859375q-0.953125 1.0625 -1.578125 1.765625q-0.265625 1.171875 -0.546875 2.46875q-0.234375 1.125 -0.53125 2.5625q-0.28125 1.421875 -0.59375 2.953125q-0.234375 0.109375 -0.5 0.171875q-0.25 0.0625 -0.4375 0.09375q-0.234375 0.046875 -0.46875 0.046875q-0.3125 0 -0.59375 -0.03125q-0.28125 -0.015625 -0.453125 -0.1875q-0.171875 -0.171875 -0.1875 -0.5625q-0.03125 -0.40625 0.203125 -1.109375q0.3125 -1.015625 0.78125 -2.703125q0.484375 -1.703125 0.984375 -3.734375q0.515625 -2.03125 1.03125 -4.234375q0.53125 -2.21875 1.0 -4.21875q0.46875 -2.015625 0.796875 -3.640625q0.34375 -1.625 0.5 -2.5625q0.109375 -1.015625 0.234375 -1.953125q0.078125 -0.78125 0.09375 -1.53125q0.015625 -0.765625 -0.09375 -1.15625q0.1875 -0.203125 0.53125 -0.359375q0.359375 -0.15625 0.796875 -0.234375q0.421875 -0.109375 1.015625 -0.1875q0.65625 -0.078125 1.109375 -0.03125q0.453125 0.03125 0.640625 0.375q0.234375 0.390625 0.09375 1.3125q-0.125 0.921875 -0.5625 2.5625q-0.546875 2.109375 -1.109375 3.84375q-0.5625 1.734375 -1.09375 3.265625q-0.53125 1.515625 -1.015625 2.953125q-0.484375 1.421875 -0.875 2.90625q0.78125 -1.140625 1.953125 -2.40625q1.171875 -1.265625 2.65625 -2.09375q1.5625 -0.8125 2.578125 -0.8125q1.25 0 1.796875 0.84375q0.546875 0.828125 0.5 1.96875q-0.03125 0.890625 -0.453125 1.65625q-0.40625 0.765625 -1.0 1.40625q-0.578125 0.640625 -1.25 1.109375q-0.65625 0.46875 -1.125 0.78125q0.546875 0.3125 0.953125 0.84375q0.421875 0.53125 0.375 1.3125q-0.03125 1.046875 -0.40625 1.859375q-0.375 0.796875 -0.375 1.453125q0.046875 0.515625 0.21875 0.75q0.171875 0.234375 0.765625 0.234375q1.046875 0 2.203125 -0.890625q1.15625 -0.90625 2.171875 -2.078125q1.015625 -1.171875 1.875 -2.328125q0.859375 -1.15625 1.328125 -1.703125q0.65625 -0.703125 1.109375 -0.359375q0.453125 0.328125 -0.09375 1.21875zm3.0859375 6.453125q0.234375 0.15625 0.59375 0.15625q0.375 0 0.75 -0.15625q0.375 -0.15625 0.703125 -0.421875q0.328125 -0.28125 0.484375 -0.71875q0.15625 -0.421875 0 -1.21875q-0.15625 -0.8125 -0.484375 -1.71875q-0.328125 -0.921875 -0.71875 -1.859375q-0.390625 -0.9375 -0.671875 -1.71875q-0.234375 -0.59375 -0.390625 -1.09375q-0.15625 -0.4375 -0.296875 -0.84375q-0.125 -0.40625 -0.203125 -0.5625q-0.203125 0.3125 -0.6875 1.015625q-0.484375 0.703125 -1.0625 1.46875q-0.5625 0.75 -1.078125 1.40625q-0.5 0.640625 -0.6875 0.875q-0.3125 0.34375 -0.609375 0.40625q-0.296875 0.0625 -0.5 -0.109375q-0.1875 -0.1875 -0.203125 -0.515625q-0.015625 -0.328125 0.296875 -0.796875q0.234375 -0.3125 0.703125 -1.0q0.46875 -0.6875 0.9375 -1.40625q0.46875 -0.71875 0.859375 -1.28125q0.390625 -0.578125 0.421875 -0.6875q0.078125 -0.3125 -0.21875 -0.8125q-0.28125 -0.515625 -0.09375 -1.1875q0.15625 -0.546875 0.703125 -1.265625q0.546875 -0.71875 1.28125 -1.296875q0.75 -0.59375 1.53125 -0.890625q0.78125 -0.296875 1.40625 0.015625q0.515625 0.3125 0.828125 0.6875q0.3125 0.375 0.234375 0.765625q-0.078125 0.1875 -0.234375 0.5q-0.15625 0.3125 -0.46875 0.765625q-0.3125 0.453125 -0.90625 1.15625q0.125 0.890625 0.328125 1.640625q0.21875 0.734375 0.421875 1.28125q0.234375 0.671875 0.5 1.21875q0.359375 0.703125 0.75 1.453125q0.390625 0.734375 0.703125 1.453125q0.3125 0.71875 0.5 1.34375q0.203125 0.625 0.125 1.0625q-0.125 0.65625 -0.6875 1.59375q-0.5625 0.9375 -1.40625 1.828125q-0.84375 0.875 -1.921875 1.5q-1.0625 0.625 -2.234375 0.625q-0.828125 0 -1.59375 -0.515625q-0.75 -0.5 -1.28125 -1.1875q-0.53125 -0.6875 -0.78125 -1.34375q-0.25 -0.671875 -0.0625 -1.015625q0.234375 -0.46875 0.421875 -0.734375q0.203125 -0.28125 0.59375 -0.640625q0.15625 -0.109375 0.390625 -0.265625q0.203125 -0.125 0.546875 -0.234375q0.359375 -0.125 0.828125 -0.28125q0.390625 1.21875 0.703125 1.90625q0.3125 0.671875 0.5 1.0625q0.234375 0.4375 0.4375 0.59375z" fill-rule="nonzero"/><path fill="#ffffff" d="m127.51703 77.47037q-0.046875 -0.109375 0.21875 -0.59375q0.28125 -0.5 0.609375 -1.21875q0.34375 -0.71875 0.671875 -1.640625q0.328125 -0.921875 0.46875 -1.890625q0.140625 -0.984375 -0.015625 -1.953125q-0.15625 -0.984375 -0.828125 -1.875q-0.390625 -0.46875 -1.15625 -0.53125q-0.75 -0.0625 -1.71875 0.234375q-0.953125 0.296875 -1.984375 0.90625q-1.03125 0.59375 -1.890625 1.40625q-0.859375 0.796875 -1.46875 1.78125q-0.609375 0.96875 -0.6875 1.984375q-0.078125 0.8125 0.0625 1.515625q0.140625 0.703125 0.375 1.296875q0.234375 0.578125 0.5 1.09375q0.28125 0.5 0.515625 0.890625q0.3125 0.546875 0.96875 1.21875q0.671875 0.65625 1.453125 1.5q0.78125 0.84375 1.5625 1.90625q0.78125 1.046875 1.359375 2.375q0.59375 1.328125 0.828125 2.96875q0.234375 1.640625 -0.046875 3.625q-0.421875 2.890625 -1.359375 4.828125q-0.9375 1.9375 -2.0625 3.109375q-1.109375 1.171875 -2.25 1.703125q-1.125 0.53125 -1.859375 0.6875q-0.59375 0.109375 -1.390625 0.203125q-0.796875 0.109375 -1.6875 -0.03125q-0.875 -0.140625 -1.78125 -0.546875q-0.890625 -0.40625 -1.59375 -1.265625q-0.828125 -0.984375 -1.296875 -2.109375q-0.421875 -0.984375 -0.640625 -2.25q-0.21875 -1.265625 0.21875 -2.640625q0.3125 -0.359375 0.671875 -0.625q0.34375 -0.28125 0.6875 -0.46875q0.40625 -0.234375 0.828125 -0.4375q0.515625 -0.15625 1.015625 -0.265625q0.4375 -0.078125 0.921875 -0.09375q0.484375 -0.03125 0.921875 0.125q-0.59375 0.671875 -0.828125 1.25q-0.15625 0.3125 -0.234375 0.546875q-0.15625 0.75 -0.09375 1.78125q0.0625 1.046875 0.421875 2.0q0.375 0.953125 1.078125 1.640625q0.703125 0.6875 1.875 0.71875q2.859375 0.078125 4.84375 -4.453125q0.671875 -1.40625 0.6875 -2.84375q0.015625 -1.453125 -0.359375 -2.78125q-0.359375 -1.328125 -0.96875 -2.484375q-0.609375 -1.15625 -1.234375 -1.96875q-0.625 -0.828125 -1.5 -1.78125q-0.875 -0.953125 -1.734375 -2.078125q-0.859375 -1.140625 -1.546875 -2.46875q-0.6875 -1.328125 -0.921875 -2.890625q-0.3125 -2.1875 0.40625 -4.0q0.734375 -1.828125 1.953125 -3.1875q1.234375 -1.375 2.703125 -2.234375q1.46875 -0.859375 2.59375 -1.09375q6.296875 -1.25 8.25 2.109375q0.8125 1.296875 0.890625 2.75q0.078125 1.4375 -0.171875 2.671875q-0.25 1.21875 -0.625 2.0625q-0.375 0.84375 -0.484375 0.921875q-0.234375 0.234375 -0.75 0.515625q-0.5 0.265625 -1.640625 0.5q-0.3125 0.078125 -0.625 0.078125q-0.265625 0 -0.578125 -0.03125q-0.3125 -0.046875 -0.546875 -0.171875zm22.34375 9.8125q-1.171875 1.71875 -2.65625 3.34375q-1.484375 1.609375 -3.15625 2.890625q-1.65625 1.265625 -3.390625 2.046875q-1.734375 0.78125 -3.375 0.78125q-0.859375 0 -1.859375 -0.40625q-1.0 -0.40625 -1.828125 -1.265625q-0.8125 -0.875 -1.3125 -2.234375q-0.484375 -1.375 -0.28125 -3.328125q0.15625 -1.59375 1.0 -3.375q0.84375 -1.78125 2.0625 -3.265625q1.234375 -1.484375 2.78125 -2.453125q1.546875 -0.984375 3.109375 -0.984375q1.484375 0 2.140625 0.75q0.671875 0.734375 0.59375 1.828125q-0.125 1.21875 -0.6875 2.234375q-0.5625 1.015625 -1.34375 1.84375q-0.78125 0.8125 -1.671875 1.484375q-0.875 0.65625 -1.65625 1.203125q-0.859375 0.578125 -1.640625 1.109375q-0.78125 0.53125 -1.359375 0.953125q0.03125 0.984375 0.34375 1.65625q0.3125 0.65625 0.78125 1.0625q0.46875 0.40625 1.078125 0.59375q0.609375 0.171875 1.234375 0.171875q1.328125 0 2.765625 -0.84375q1.453125 -0.84375 2.828125 -2.03125q1.390625 -1.1875 2.578125 -2.46875q1.203125 -1.296875 1.984375 -2.234375q0.265625 -0.3125 0.5625 -0.375q0.296875 -0.0625 0.46875 0.078125q0.171875 0.140625 0.171875 0.46875q0 0.328125 -0.265625 0.765625zm-10.0 -6.015625q-0.46875 0 -1.125 0.46875q-0.640625 0.46875 -1.265625 1.34375q-0.625 0.875 -1.171875 2.15625q-0.546875 1.265625 -0.8125 2.90625q0.46875 -0.359375 1.015625 -0.71875q0.546875 -0.375 1.09375 -0.8125q1.671875 -1.28125 2.328125 -2.25q0.671875 -0.984375 0.75 -1.6875q0.078125 -0.75 -0.15625 -1.078125q-0.234375 -0.328125 -0.65625 -0.328125zm5.6953125 13.9375q-0.28125 0.4375 -0.609375 0.578125q-0.328125 0.140625 -0.578125 0.03125q-0.265625 -0.09375 -0.34375 -0.40625q-0.078125 -0.3125 0.15625 -0.78125q0.125 -0.234375 0.53125 -1.046875q0.40625 -0.828125 0.984375 -1.984375q0.5625 -1.15625 1.234375 -2.5q0.65625 -1.34375 1.265625 -2.546875q0.609375 -1.21875 1.109375 -2.171875q0.515625 -0.96875 0.75 -1.390625q-0.4375 -0.390625 -0.59375 -0.5625q-0.15625 -0.1875 -0.234375 -0.765625q-0.078125 -0.515625 0.234375 -1.328125q0.3125 -0.828125 0.8125 -1.578125q0.515625 -0.765625 1.140625 -1.3125q0.625 -0.546875 1.21875 -0.546875q1.09375 0 1.53125 0.703125q0.453125 0.703125 0.53125 1.4375q0.078125 0.515625 -0.078125 1.296875q-0.15625 0.78125 -0.578125 1.40625q0.109375 0.078125 0.296875 0.171875q0.203125 0.09375 0.640625 0.09375q0.625 0 0.875 -0.078125q0.25 -0.078125 0.796875 -0.078125q0.671875 0 1.09375 0.34375q0.4375 0.328125 0.703125 0.8125q0.28125 0.484375 0.40625 1.0625q0.140625 0.5625 0.1875 1.03125q0.109375 0.96875 -0.515625 2.03125q-0.625 1.046875 -1.515625 2.296875q-0.546875 0.78125 -1.09375 1.765625q-0.546875 0.96875 -0.46875 1.75q0.078125 0.515625 0.265625 0.828125q0.203125 0.3125 1.09375 0.3125q0.671875 0 1.46875 -0.484375q0.796875 -0.5 1.640625 -1.25q0.84375 -0.765625 1.65625 -1.6875q0.828125 -0.921875 1.53125 -1.796875q0.703125 -0.875 1.1875 -1.578125q0.484375 -0.703125 0.71875 -1.015625q0.203125 -0.3125 0.515625 -0.421875q0.3125 -0.125 0.546875 0q0.234375 0.109375 0.28125 0.46875q0.0625 0.34375 -0.28125 0.921875q-0.234375 0.390625 -0.8125 1.25q-0.5625 0.859375 -1.359375 1.921875q-0.796875 1.046875 -1.78125 2.171875q-0.96875 1.109375 -2.046875 2.03125q-1.078125 0.921875 -2.15625 1.5q-1.0625 0.59375 -2.046875 0.59375q-1.015625 0 -1.6875 -0.390625q-0.65625 -0.390625 -1.0625 -0.953125q-0.40625 -0.578125 -0.59375 -1.265625q-0.171875 -0.6875 -0.125 -1.265625q0.03125 -0.46875 0.25 -1.0q0.21875 -0.53125 0.5 -1.09375q0.296875 -0.5625 0.625 -1.125q0.34375 -0.578125 0.609375 -1.125q0.671875 -1.125 1.078125 -1.921875q0.40625 -0.8125 0.40625 -1.359375q0 -0.34375 -0.15625 -0.609375q-0.15625 -0.28125 -0.5 -0.28125q-0.234375 0 -0.34375 0.015625q-0.09375 0.015625 -0.1875 0.015625q-0.09375 0 -0.28125 0.03125q-0.171875 0.015625 -0.515625 0.015625q-0.515625 0 -0.875 -0.15625q-0.34375 -0.15625 -0.65625 -0.234375q-0.15625 0.265625 -0.703125 1.171875q-0.546875 0.890625 -1.265625 2.109375q-0.71875 1.203125 -1.53125 2.53125q-0.796875 1.328125 -1.5 2.484375q-0.703125 1.15625 -1.1875 1.953125q-0.5 0.796875 -0.609375 0.953125zm29.1875 -6.75q-1.015625 1.484375 -2.09375 2.890625q-1.078125 1.40625 -2.078125 2.515625q-0.984375 1.109375 -1.828125 1.796875q-0.84375 0.6875 -1.34375 0.6875q-1.21875 0 -1.984375 -1.15625q-0.75 -1.15625 -1.171875 -2.84375q-0.40625 -1.703125 -0.5 -3.640625q-0.09375 -1.9375 0.015625 -3.453125q0.15625 -1.53125 0.34375 -2.4375q0.203125 -0.921875 0.5 -1.421875q0.296875 -0.515625 0.703125 -0.75q0.40625 -0.234375 1.03125 -0.390625q0.28125 -0.078125 0.625 -0.109375q0.359375 -0.046875 0.640625 0.015625q0.296875 0.046875 0.453125 0.25q0.15625 0.1875 0.046875 0.578125q-0.078125 0.359375 -0.265625 1.046875q-0.171875 0.671875 -0.375 1.53125q-0.1875 0.859375 -0.359375 1.796875q-0.171875 0.9375 -0.25 1.796875q-0.125 1.484375 -0.015625 2.609375q0.125 1.109375 0.359375 1.875q0.234375 0.75 0.5 1.140625q0.28125 0.390625 0.4375 0.390625q0.203125 0 0.71875 -0.515625q0.53125 -0.53125 1.21875 -1.390625q0.6875 -0.859375 1.4375 -1.984375q0.765625 -1.140625 1.4375 -2.359375q-0.234375 -0.625 -0.203125 -1.484375q0.125 -1.328125 0.59375 -2.390625q0.46875 -1.078125 1.0625 -1.8125q0.609375 -0.75 1.25 -1.15625q0.65625 -0.421875 1.15625 -0.421875q1.015625 0 1.265625 0.53125q0.265625 0.53125 0.1875 1.078125q-0.078125 0.8125 -0.734375 2.25q-0.640625 1.421875 -1.65625 3.09375q0.203125 0.078125 0.4375 0.15625q0.234375 0.078125 0.546875 0.078125q1.328125 0 2.390625 -0.3125q1.078125 -0.3125 1.875 -0.734375q0.8125 -0.4375 1.375 -0.921875q0.5625 -0.484375 0.921875 -0.796875q0.234375 -0.234375 0.46875 -0.234375q0.234375 0 0.390625 0.125q0.15625 0.109375 0.15625 0.34375q0 0.234375 -0.234375 0.5q-1.40625 1.71875 -3.421875 2.78125q-2.015625 1.046875 -4.703125 1.046875q-0.234375 0 -0.59375 -0.03125q-0.34375 -0.046875 -0.734375 -0.15625zm14.25 -16.0625q-0.109375 0.4375 -0.453125 0.84375q-0.328125 0.40625 -0.734375 0.671875q-0.40625 0.25 -0.84375 0.328125q-0.421875 0.078125 -0.703125 -0.15625q-0.8125 -0.625 -0.859375 -1.34375q-0.03125 -0.734375 0.359375 -1.375q0.390625 -0.640625 0.96875 -1.09375q0.59375 -0.453125 1.015625 -0.53125q0.4375 -0.078125 0.71875 0.1875q0.296875 0.25 0.453125 0.65625q0.15625 0.40625 0.171875 0.921875q0.03125 0.5 -0.09375 0.890625zm-5.390625 8.328125q0.203125 -0.234375 0.75 -0.390625q0.546875 -0.15625 1.125 -0.25q0.59375 -0.109375 1.078125 -0.125q0.484375 -0.015625 0.5625 0.015625q0.046875 0.046875 -0.1875 0.828125q-0.234375 0.78125 -0.59375 1.84375q-0.34375 1.046875 -0.734375 2.15625q-0.390625 1.109375 -0.59375 1.8125q-0.1875 0.703125 -0.46875 1.59375q-0.265625 0.875 -0.484375 1.71875q-0.21875 0.828125 -0.296875 1.578125q-0.078125 0.734375 0.125 1.125q0.1875 0.46875 0.421875 0.65625q0.234375 0.171875 0.515625 0.171875q0.78125 0 1.96875 -0.859375q1.1875 -0.859375 2.421875 -2.046875q1.234375 -1.203125 2.28125 -2.421875q1.0625 -1.234375 1.5625 -1.984375q0.3125 -0.390625 0.640625 -0.5q0.34375 -0.125 0.546875 0.03125q0.21875 0.15625 0.234375 0.515625q0.03125 0.34375 -0.25 0.8125q-0.625 1.09375 -1.84375 2.609375q-1.203125 1.5 -2.578125 2.890625q-1.359375 1.375 -2.671875 2.359375q-1.296875 0.984375 -2.125 1.015625q-0.65625 0.046875 -1.3125 -0.21875q-0.640625 -0.25 -1.171875 -0.703125q-0.515625 -0.453125 -0.875 -1.046875q-0.34375 -0.609375 -0.390625 -1.28125q-0.109375 -0.96875 0 -2.671875q0.125 -1.703125 0.4375 -3.46875q0.3125 -1.78125 0.796875 -3.375q0.484375 -1.609375 1.109375 -2.390625zm14.4140625 13.359375q1.21875 0 2.671875 -0.953125q1.46875 -0.96875 2.859375 -2.25q1.390625 -1.296875 2.53125 -2.640625q1.15625 -1.34375 1.75 -2.171875q0.34375 -0.5 0.65625 -0.59375q0.3125 -0.109375 0.46875 0.09375q0.15625 0.1875 0.109375 0.609375q-0.03125 0.40625 -0.34375 0.90625q-0.265625 0.46875 -0.921875 1.359375q-0.640625 0.875 -1.515625 1.90625q-0.875 1.03125 -2.0 2.109375q-1.109375 1.078125 -2.328125 1.953125q-1.203125 0.875 -2.5 1.4375q-1.28125 0.578125 -2.53125 0.578125q-1.71875 0 -2.875 -0.65625q-1.140625 -0.640625 -1.828125 -1.65625q-0.6875 -1.015625 -0.953125 -2.234375q-0.28125 -1.234375 -0.28125 -2.453125q0 -1.203125 0.546875 -3.0q0.546875 -1.796875 1.625 -3.453125q1.078125 -1.671875 2.71875 -2.859375q1.640625 -1.1875 3.859375 -1.1875q1.25 0 2.125 0.859375q0.890625 0.859375 0.84375 2.34375q0 0.703125 -0.234375 1.390625q-0.234375 0.671875 -0.625 1.203125q-0.390625 0.53125 -0.921875 0.84375q-0.515625 0.3125 -1.140625 0.3125q-0.515625 0 -0.765625 -0.375q-0.25 -0.375 -0.3125 -0.859375q-0.0625 -0.484375 0 -0.953125q0.0625 -0.46875 0.140625 -0.625q0.1875 -0.28125 0.421875 -0.390625q0.234375 -0.125 0.546875 -0.28125q0.234375 -0.109375 0.375 -0.34375q0.140625 -0.234375 0.140625 -0.5q0 -0.28125 -0.15625 -0.46875q-0.15625 -0.203125 -0.515625 -0.203125q-0.34375 0 -1.265625 0.5625q-0.921875 0.5625 -1.875 1.6875q-0.953125 1.109375 -1.703125 2.796875q-0.734375 1.671875 -0.78125 3.890625q-0.03125 1.296875 0.359375 2.125q0.390625 0.8125 0.96875 1.28125q0.59375 0.46875 1.296875 0.671875q0.703125 0.1875 1.359375 0.1875zm25.59375 -6.796875q-1.171875 1.71875 -2.65625 3.34375q-1.484375 1.609375 -3.15625 2.890625q-1.65625 1.265625 -3.390625 2.046875q-1.734375 0.78125 -3.375 0.78125q-0.859375 0 -1.859375 -0.40625q-1.0 -0.40625 -1.828125 -1.265625q-0.8125 -0.875 -1.3125 -2.234375q-0.484375 -1.375 -0.28125 -3.328125q0.15625 -1.59375 1.0 -3.375q0.84375 -1.78125 2.0625 -3.265625q1.234375 -1.484375 2.78125 -2.453125q1.546875 -0.984375 3.109375 -0.984375q1.484375 0 2.140625 0.75q0.671875 0.734375 0.59375 1.828125q-0.125 1.21875 -0.6875 2.234375q-0.5625 1.015625 -1.34375 1.84375q-0.78125 0.8125 -1.671875 1.484375q-0.875 0.65625 -1.65625 1.203125q-0.859375 0.578125 -1.640625 1.109375q-0.78125 0.53125 -1.359375 0.953125q0.03125 0.984375 0.34375 1.65625q0.3125 0.65625 0.78125 1.0625q0.46875 0.40625 1.078125 0.59375q0.609375 0.171875 1.234375 0.171875q1.328125 0 2.765625 -0.84375q1.453125 -0.84375 2.828125 -2.03125q1.390625 -1.1875 2.578125 -2.46875q1.203125 -1.296875 1.984375 -2.234375q0.265625 -0.3125 0.5625 -0.375q0.296875 -0.0625 0.46875 0.078125q0.171875 0.140625 0.171875 0.46875q0 0.328125 -0.265625 0.765625zm-10.0 -6.015625q-0.46875 0 -1.125 0.46875q-0.640625 0.46875 -1.265625 1.34375q-0.625 0.875 -1.171875 2.15625q-0.546875 1.265625 -0.8125 2.90625q0.46875 -0.359375 1.015625 -0.71875q0.546875 -0.375 1.09375 -0.8125q1.671875 -1.28125 2.328125 -2.25q0.671875 -0.984375 0.75 -1.6875q0.078125 -0.75 -0.15625 -1.078125q-0.234375 -0.328125 -0.65625 -0.328125zm12.6953125 12.8125q0.234375 0.15625 0.59375 0.15625q0.375 0 0.75 -0.15625q0.375 -0.15625 0.703125 -0.421875q0.328125 -0.28125 0.484375 -0.71875q0.15625 -0.421875 0 -1.21875q-0.15625 -0.8125 -0.484375 -1.71875q-0.328125 -0.921875 -0.71875 -1.859375q-0.390625 -0.9375 -0.671875 -1.71875q-0.234375 -0.59375 -0.390625 -1.09375q-0.15625 -0.4375 -0.296875 -0.84375q-0.125 -0.40625 -0.203125 -0.5625q-0.203125 0.3125 -0.6875 1.015625q-0.484375 0.703125 -1.0625 1.46875q-0.5625 0.75 -1.078125 1.40625q-0.5 0.640625 -0.6875 0.875q-0.3125 0.34375 -0.609375 0.40625q-0.296875 0.0625 -0.5 -0.109375q-0.1875 -0.1875 -0.203125 -0.515625q-0.015625 -0.328125 0.296875 -0.796875q0.234375 -0.3125 0.703125 -1.0q0.46875 -0.6875 0.9375 -1.40625q0.46875 -0.71875 0.859375 -1.28125q0.390625 -0.578125 0.421875 -0.6875q0.078125 -0.3125 -0.21875 -0.8125q-0.28125 -0.515625 -0.09375 -1.1875q0.15625 -0.546875 0.703125 -1.265625q0.546875 -0.71875 1.28125 -1.296875q0.75 -0.59375 1.53125 -0.890625q0.78125 -0.296875 1.40625 0.015625q0.515625 0.3125 0.828125 0.6875q0.3125 0.375 0.234375 0.765625q-0.078125 0.1875 -0.234375 0.5q-0.15625 0.3125 -0.46875 0.765625q-0.3125 0.453125 -0.90625 1.15625q0.125 0.890625 0.328125 1.640625q0.21875 0.734375 0.421875 1.28125q0.234375 0.671875 0.5 1.21875q0.359375 0.703125 0.75 1.453125q0.390625 0.734375 0.703125 1.453125q0.3125 0.71875 0.5 1.34375q0.203125 0.625 0.125 1.0625q-0.125 0.65625 -0.6875 1.59375q-0.5625 0.9375 -1.40625 1.828125q-0.84375 0.875 -1.921875 1.5q-1.0625 0.625 -2.234375 0.625q-0.828125 0 -1.59375 -0.515625q-0.75 -0.5 -1.28125 -1.1875q-0.53125 -0.6875 -0.78125 -1.34375q-0.25 -0.671875 -0.0625 -1.015625q0.234375 -0.46875 0.421875 -0.734375q0.203125 -0.28125 0.59375 -0.640625q0.15625 -0.109375 0.390625 -0.265625q0.203125 -0.125 0.546875 -0.234375q0.359375 -0.125 0.828125 -0.28125q0.390625 1.21875 0.703125 1.90625q0.3125 0.671875 0.5 1.0625q0.234375 0.4375 0.4375 0.59375z" fill-rule="nonzero"/></g></svg>